<mxfile host="app.diagrams.net" modified="2023-07-14T08:49:05.525Z" agent="Mozilla/5.0 (X11; Ubuntu; Linux x86_64; rv:109.0) Gecko/20100101 Firefox/115.0" etag="R43nvMhENkx4Brg1rtXu" version="21.6.2" type="github">
  <diagram name="Page-1" id="-jojvnu9CKfeev1R-aue">
    <mxGraphModel dx="3397" dy="2754" grid="1" gridSize="10" guides="1" tooltips="1" connect="1" arrows="1" fold="1" page="1" pageScale="1" pageWidth="850" pageHeight="1100" math="0" shadow="0">
      <root>
        <mxCell id="0" />
        <mxCell id="1" parent="0" />
        <mxCell id="FrgEP49qUgRcy6b8qw3s-23" style="edgeStyle=orthogonalEdgeStyle;rounded=0;orthogonalLoop=1;jettySize=auto;html=1;exitX=1;exitY=0.5;exitDx=0;exitDy=0;entryX=1;entryY=0.5;entryDx=0;entryDy=0;" parent="1" edge="1">
          <mxGeometry relative="1" as="geometry">
            <mxPoint x="700" y="980" as="targetPoint" />
          </mxGeometry>
        </mxCell>
        <mxCell id="CXxHxpBOYkMWyndGR7CC-3" value="" style="edgeStyle=orthogonalEdgeStyle;rounded=0;orthogonalLoop=1;jettySize=auto;html=1;" parent="1" source="CXxHxpBOYkMWyndGR7CC-1" target="CXxHxpBOYkMWyndGR7CC-2" edge="1">
          <mxGeometry relative="1" as="geometry" />
        </mxCell>
        <mxCell id="CXxHxpBOYkMWyndGR7CC-10" value="" style="edgeStyle=orthogonalEdgeStyle;rounded=0;orthogonalLoop=1;jettySize=auto;html=1;" parent="1" source="CXxHxpBOYkMWyndGR7CC-1" target="CXxHxpBOYkMWyndGR7CC-9" edge="1">
          <mxGeometry relative="1" as="geometry" />
        </mxCell>
        <mxCell id="CXxHxpBOYkMWyndGR7CC-1" value="&lt;font style=&quot;font-size: 25px;&quot;&gt;is *head == NULL?&lt;/font&gt;" style="rhombus;whiteSpace=wrap;html=1;" parent="1" vertex="1">
          <mxGeometry x="260" y="-190" width="230" height="230" as="geometry" />
        </mxCell>
        <mxCell id="CXxHxpBOYkMWyndGR7CC-6" value="" style="edgeStyle=orthogonalEdgeStyle;rounded=0;orthogonalLoop=1;jettySize=auto;html=1;" parent="1" source="CXxHxpBOYkMWyndGR7CC-2" target="CXxHxpBOYkMWyndGR7CC-5" edge="1">
          <mxGeometry relative="1" as="geometry" />
        </mxCell>
        <mxCell id="CXxHxpBOYkMWyndGR7CC-2" value="&lt;font style=&quot;font-size: 20px;&quot;&gt;*head = n_node&lt;/font&gt;" style="shape=parallelogram;perimeter=parallelogramPerimeter;whiteSpace=wrap;html=1;fixedSize=1;" parent="1" vertex="1">
          <mxGeometry x="718.75" y="-117.5" width="227.5" height="85" as="geometry" />
        </mxCell>
        <mxCell id="CXxHxpBOYkMWyndGR7CC-4" value="yes" style="text;html=1;align=center;verticalAlign=middle;resizable=0;points=[];autosize=1;strokeColor=none;fillColor=none;" parent="1" vertex="1">
          <mxGeometry x="589.38" y="-70" width="40" height="30" as="geometry" />
        </mxCell>
        <mxCell id="2vkpZtUd1G314NME9nIe-3" style="edgeStyle=orthogonalEdgeStyle;rounded=0;orthogonalLoop=1;jettySize=auto;html=1;exitX=0.5;exitY=1;exitDx=0;exitDy=0;entryX=1;entryY=0.5;entryDx=0;entryDy=0;" edge="1" parent="1" source="CXxHxpBOYkMWyndGR7CC-5" target="CXxHxpBOYkMWyndGR7CC-27">
          <mxGeometry relative="1" as="geometry">
            <Array as="points">
              <mxPoint x="830" y="186" />
              <mxPoint x="830" y="1440" />
              <mxPoint x="448" y="1440" />
            </Array>
          </mxGeometry>
        </mxCell>
        <mxCell id="CXxHxpBOYkMWyndGR7CC-5" value="&lt;font style=&quot;font-size: 20px;&quot;&gt;n_node-&amp;gt;next&amp;nbsp; = NULL&lt;/font&gt;" style="shape=parallelogram;perimeter=parallelogramPerimeter;whiteSpace=wrap;html=1;fixedSize=1;" parent="1" vertex="1">
          <mxGeometry x="712.5" y="118" width="240" height="67.5" as="geometry" />
        </mxCell>
        <mxCell id="CXxHxpBOYkMWyndGR7CC-60" style="edgeStyle=orthogonalEdgeStyle;rounded=0;orthogonalLoop=1;jettySize=auto;html=1;exitX=0.5;exitY=1;exitDx=0;exitDy=0;entryX=0.5;entryY=0;entryDx=0;entryDy=0;" parent="1" source="CXxHxpBOYkMWyndGR7CC-9" target="CXxHxpBOYkMWyndGR7CC-59" edge="1">
          <mxGeometry relative="1" as="geometry" />
        </mxCell>
        <mxCell id="CXxHxpBOYkMWyndGR7CC-9" value="&lt;font style=&quot;font-size: 16px;&quot;&gt;prev = *head&lt;/font&gt;" style="shape=parallelogram;perimeter=parallelogramPerimeter;whiteSpace=wrap;html=1;fixedSize=1;" parent="1" vertex="1">
          <mxGeometry x="315" y="180" width="120" height="60" as="geometry" />
        </mxCell>
        <mxCell id="CXxHxpBOYkMWyndGR7CC-14" value="" style="edgeStyle=orthogonalEdgeStyle;rounded=0;orthogonalLoop=1;jettySize=auto;html=1;exitX=1;exitY=0.5;exitDx=0;exitDy=0;" parent="1" source="CXxHxpBOYkMWyndGR7CC-41" target="CXxHxpBOYkMWyndGR7CC-13" edge="1">
          <mxGeometry relative="1" as="geometry" />
        </mxCell>
        <mxCell id="CXxHxpBOYkMWyndGR7CC-35" value="" style="edgeStyle=orthogonalEdgeStyle;rounded=0;orthogonalLoop=1;jettySize=auto;html=1;entryX=1;entryY=0.5;entryDx=0;entryDy=0;" parent="1" source="CXxHxpBOYkMWyndGR7CC-11" target="CXxHxpBOYkMWyndGR7CC-46" edge="1">
          <mxGeometry relative="1" as="geometry" />
        </mxCell>
        <mxCell id="CXxHxpBOYkMWyndGR7CC-42" value="" style="edgeStyle=orthogonalEdgeStyle;rounded=0;orthogonalLoop=1;jettySize=auto;html=1;" parent="1" source="CXxHxpBOYkMWyndGR7CC-11" target="CXxHxpBOYkMWyndGR7CC-41" edge="1">
          <mxGeometry relative="1" as="geometry" />
        </mxCell>
        <mxCell id="CXxHxpBOYkMWyndGR7CC-11" value="&lt;font style=&quot;font-size: 18px;&quot;&gt;is prev-&amp;gt;next != NULL?&lt;br&gt;&lt;/font&gt;" style="rhombus;whiteSpace=wrap;html=1;" parent="1" vertex="1">
          <mxGeometry x="276.88" y="530" width="196.25" height="200" as="geometry" />
        </mxCell>
        <mxCell id="CXxHxpBOYkMWyndGR7CC-18" style="edgeStyle=orthogonalEdgeStyle;rounded=0;orthogonalLoop=1;jettySize=auto;html=1;exitX=0;exitY=0.5;exitDx=0;exitDy=0;entryX=0.5;entryY=0;entryDx=0;entryDy=0;" parent="1" source="CXxHxpBOYkMWyndGR7CC-13" target="CXxHxpBOYkMWyndGR7CC-11" edge="1">
          <mxGeometry relative="1" as="geometry">
            <Array as="points">
              <mxPoint x="375" y="510" />
            </Array>
          </mxGeometry>
        </mxCell>
        <mxCell id="CXxHxpBOYkMWyndGR7CC-13" value="&lt;font style=&quot;font-size: 16px;&quot;&gt;prev = prev-&amp;gt;next&lt;/font&gt;" style="shape=parallelogram;perimeter=parallelogramPerimeter;whiteSpace=wrap;html=1;fixedSize=1;" parent="1" vertex="1">
          <mxGeometry x="610" y="480" width="120" height="60" as="geometry" />
        </mxCell>
        <mxCell id="CXxHxpBOYkMWyndGR7CC-19" value="no" style="text;html=1;align=center;verticalAlign=middle;resizable=0;points=[];autosize=1;strokeColor=none;fillColor=none;" parent="1" vertex="1">
          <mxGeometry x="530" y="870" width="40" height="30" as="geometry" />
        </mxCell>
        <mxCell id="CXxHxpBOYkMWyndGR7CC-26" value="" style="edgeStyle=orthogonalEdgeStyle;rounded=0;orthogonalLoop=1;jettySize=auto;html=1;" parent="1" source="CXxHxpBOYkMWyndGR7CC-22" target="CXxHxpBOYkMWyndGR7CC-25" edge="1">
          <mxGeometry relative="1" as="geometry" />
        </mxCell>
        <mxCell id="CXxHxpBOYkMWyndGR7CC-22" value="&lt;font style=&quot;font-size: 18px;&quot;&gt;n_node-&amp;gt;next = prev-&amp;gt;next&lt;/font&gt;" style="shape=parallelogram;perimeter=parallelogramPerimeter;whiteSpace=wrap;html=1;fixedSize=1;" parent="1" vertex="1">
          <mxGeometry x="241.25" y="1060" width="267.5" height="100" as="geometry" />
        </mxCell>
        <mxCell id="CXxHxpBOYkMWyndGR7CC-24" value="yes" style="text;html=1;align=center;verticalAlign=middle;resizable=0;points=[];autosize=1;strokeColor=none;fillColor=none;" parent="1" vertex="1">
          <mxGeometry x="330" y="990" width="40" height="30" as="geometry" />
        </mxCell>
        <mxCell id="CXxHxpBOYkMWyndGR7CC-28" value="" style="edgeStyle=orthogonalEdgeStyle;rounded=0;orthogonalLoop=1;jettySize=auto;html=1;" parent="1" source="CXxHxpBOYkMWyndGR7CC-25" target="CXxHxpBOYkMWyndGR7CC-27" edge="1">
          <mxGeometry relative="1" as="geometry" />
        </mxCell>
        <mxCell id="CXxHxpBOYkMWyndGR7CC-25" value="&lt;font style=&quot;font-size: 17px;&quot;&gt;prev-&amp;gt;next = n_node&lt;/font&gt;" style="shape=parallelogram;perimeter=parallelogramPerimeter;whiteSpace=wrap;html=1;fixedSize=1;" parent="1" vertex="1">
          <mxGeometry x="265.78" y="1240" width="217.5" height="65" as="geometry" />
        </mxCell>
        <mxCell id="CXxHxpBOYkMWyndGR7CC-27" value="return n_node" style="shape=parallelogram;perimeter=parallelogramPerimeter;whiteSpace=wrap;html=1;fixedSize=1;" parent="1" vertex="1">
          <mxGeometry x="292.5" y="1400" width="165" height="65" as="geometry" />
        </mxCell>
        <mxCell id="CXxHxpBOYkMWyndGR7CC-37" value="" style="edgeStyle=orthogonalEdgeStyle;rounded=0;orthogonalLoop=1;jettySize=auto;html=1;" parent="1" source="CXxHxpBOYkMWyndGR7CC-34" target="CXxHxpBOYkMWyndGR7CC-36" edge="1">
          <mxGeometry relative="1" as="geometry" />
        </mxCell>
        <mxCell id="CXxHxpBOYkMWyndGR7CC-34" value="&lt;font style=&quot;font-size: 17px;&quot;&gt;n_node-&amp;gt;next = *head&lt;/font&gt;" style="shape=parallelogram;perimeter=parallelogramPerimeter;whiteSpace=wrap;html=1;fixedSize=1;" parent="1" vertex="1">
          <mxGeometry x="-395" y="585" width="221.25" height="90" as="geometry" />
        </mxCell>
        <mxCell id="CXxHxpBOYkMWyndGR7CC-40" style="edgeStyle=orthogonalEdgeStyle;rounded=0;orthogonalLoop=1;jettySize=auto;html=1;exitX=0.5;exitY=1;exitDx=0;exitDy=0;entryX=0;entryY=0.5;entryDx=0;entryDy=0;" parent="1" source="CXxHxpBOYkMWyndGR7CC-36" target="CXxHxpBOYkMWyndGR7CC-27" edge="1">
          <mxGeometry relative="1" as="geometry">
            <Array as="points">
              <mxPoint x="-127" y="1363" />
            </Array>
          </mxGeometry>
        </mxCell>
        <mxCell id="CXxHxpBOYkMWyndGR7CC-36" value="&lt;font style=&quot;font-size: 21px;&quot;&gt;&amp;nbsp;*head = n_node&lt;/font&gt;" style="shape=parallelogram;perimeter=parallelogramPerimeter;whiteSpace=wrap;html=1;fixedSize=1;" parent="1" vertex="1">
          <mxGeometry x="-370" y="880" width="171.25" height="90" as="geometry" />
        </mxCell>
        <mxCell id="CXxHxpBOYkMWyndGR7CC-43" style="edgeStyle=orthogonalEdgeStyle;rounded=0;orthogonalLoop=1;jettySize=auto;html=1;exitX=0.5;exitY=1;exitDx=0;exitDy=0;entryX=0.5;entryY=0;entryDx=0;entryDy=0;" parent="1" source="CXxHxpBOYkMWyndGR7CC-41" target="CXxHxpBOYkMWyndGR7CC-22" edge="1">
          <mxGeometry relative="1" as="geometry" />
        </mxCell>
        <mxCell id="CXxHxpBOYkMWyndGR7CC-41" value="&lt;font style=&quot;font-size: 18px;&quot;&gt;is prev-&amp;gt;next&amp;gt;= number?&lt;/font&gt;" style="rhombus;whiteSpace=wrap;html=1;" parent="1" vertex="1">
          <mxGeometry x="266.72" y="790" width="216.56" height="160" as="geometry" />
        </mxCell>
        <mxCell id="CXxHxpBOYkMWyndGR7CC-44" value="yes" style="text;html=1;align=center;verticalAlign=middle;resizable=0;points=[];autosize=1;strokeColor=none;fillColor=none;" parent="1" vertex="1">
          <mxGeometry x="330" y="740" width="40" height="30" as="geometry" />
        </mxCell>
        <mxCell id="CXxHxpBOYkMWyndGR7CC-45" value="no" style="text;html=1;align=center;verticalAlign=middle;resizable=0;points=[];autosize=1;strokeColor=none;fillColor=none;" parent="1" vertex="1">
          <mxGeometry x="210" y="640" width="40" height="30" as="geometry" />
        </mxCell>
        <mxCell id="CXxHxpBOYkMWyndGR7CC-51" value="" style="edgeStyle=orthogonalEdgeStyle;rounded=0;orthogonalLoop=1;jettySize=auto;html=1;" parent="1" source="CXxHxpBOYkMWyndGR7CC-46" target="CXxHxpBOYkMWyndGR7CC-50" edge="1">
          <mxGeometry relative="1" as="geometry" />
        </mxCell>
        <mxCell id="CXxHxpBOYkMWyndGR7CC-56" style="edgeStyle=orthogonalEdgeStyle;rounded=0;orthogonalLoop=1;jettySize=auto;html=1;exitX=0;exitY=0.5;exitDx=0;exitDy=0;entryX=1;entryY=0.5;entryDx=0;entryDy=0;" parent="1" source="CXxHxpBOYkMWyndGR7CC-46" target="CXxHxpBOYkMWyndGR7CC-34" edge="1">
          <mxGeometry relative="1" as="geometry" />
        </mxCell>
        <mxCell id="CXxHxpBOYkMWyndGR7CC-46" value="&lt;font style=&quot;font-size: 18px;&quot;&gt;is prev-&amp;gt;numbert&amp;gt;= number?&lt;br&gt;&lt;/font&gt;" style="rhombus;whiteSpace=wrap;html=1;" parent="1" vertex="1">
          <mxGeometry x="-130" y="485" width="260" height="290" as="geometry" />
        </mxCell>
        <mxCell id="CXxHxpBOYkMWyndGR7CC-53" value="" style="edgeStyle=orthogonalEdgeStyle;rounded=0;orthogonalLoop=1;jettySize=auto;html=1;" parent="1" source="CXxHxpBOYkMWyndGR7CC-50" target="CXxHxpBOYkMWyndGR7CC-52" edge="1">
          <mxGeometry relative="1" as="geometry" />
        </mxCell>
        <mxCell id="CXxHxpBOYkMWyndGR7CC-50" value="&lt;font style=&quot;font-size: 17px;&quot;&gt;prev-&amp;gt;next = n_node&lt;/font&gt;" style="shape=parallelogram;perimeter=parallelogramPerimeter;whiteSpace=wrap;html=1;fixedSize=1;" parent="1" vertex="1">
          <mxGeometry x="-100" y="950" width="200" height="90" as="geometry" />
        </mxCell>
        <mxCell id="CXxHxpBOYkMWyndGR7CC-54" style="edgeStyle=orthogonalEdgeStyle;rounded=0;orthogonalLoop=1;jettySize=auto;html=1;exitX=0.5;exitY=1;exitDx=0;exitDy=0;entryX=0.5;entryY=0;entryDx=0;entryDy=0;" parent="1" source="CXxHxpBOYkMWyndGR7CC-52" target="CXxHxpBOYkMWyndGR7CC-27" edge="1">
          <mxGeometry relative="1" as="geometry">
            <Array as="points">
              <mxPoint x="-8" y="1380" />
              <mxPoint x="375" y="1380" />
            </Array>
          </mxGeometry>
        </mxCell>
        <mxCell id="CXxHxpBOYkMWyndGR7CC-52" value="&lt;font style=&quot;font-size: 20px;&quot;&gt;n_node = NULL&lt;/font&gt;" style="shape=parallelogram;perimeter=parallelogramPerimeter;whiteSpace=wrap;html=1;fixedSize=1;" parent="1" vertex="1">
          <mxGeometry x="-85" y="1120" width="170" height="120" as="geometry" />
        </mxCell>
        <mxCell id="CXxHxpBOYkMWyndGR7CC-55" value="no" style="text;html=1;align=center;verticalAlign=middle;resizable=0;points=[];autosize=1;strokeColor=none;fillColor=none;" parent="1" vertex="1">
          <mxGeometry x="-40" y="820" width="40" height="30" as="geometry" />
        </mxCell>
        <mxCell id="CXxHxpBOYkMWyndGR7CC-57" value="yes" style="text;html=1;align=center;verticalAlign=middle;resizable=0;points=[];autosize=1;strokeColor=none;fillColor=none;" parent="1" vertex="1">
          <mxGeometry x="-170" y="638" width="40" height="30" as="geometry" />
        </mxCell>
        <mxCell id="CXxHxpBOYkMWyndGR7CC-61" style="edgeStyle=orthogonalEdgeStyle;rounded=0;orthogonalLoop=1;jettySize=auto;html=1;exitX=0.5;exitY=1;exitDx=0;exitDy=0;entryX=0.5;entryY=0;entryDx=0;entryDy=0;" parent="1" source="CXxHxpBOYkMWyndGR7CC-59" target="CXxHxpBOYkMWyndGR7CC-11" edge="1">
          <mxGeometry relative="1" as="geometry" />
        </mxCell>
        <mxCell id="CXxHxpBOYkMWyndGR7CC-65" value="" style="edgeStyle=orthogonalEdgeStyle;rounded=0;orthogonalLoop=1;jettySize=auto;html=1;" parent="1" source="CXxHxpBOYkMWyndGR7CC-59" target="CXxHxpBOYkMWyndGR7CC-64" edge="1">
          <mxGeometry relative="1" as="geometry" />
        </mxCell>
        <mxCell id="CXxHxpBOYkMWyndGR7CC-59" value="&lt;font style=&quot;background-color: rgb(255, 255, 255); font-size: 19px;&quot;&gt;is &lt;/font&gt;&lt;div style=&quot;background-color: rgb(30, 30, 30); font-family: &amp;quot;Droid Sans Mono&amp;quot;, &amp;quot;monospace&amp;quot;, monospace; font-weight: normal; line-height: 19px; font-size: 19px;&quot;&gt;&lt;div&gt;&lt;font style=&quot;background-color: rgb(255, 255, 255); font-size: 19px;&quot;&gt;prev-&amp;gt;n &amp;gt;= number&lt;/font&gt;&lt;/div&gt;&lt;/div&gt;" style="rhombus;whiteSpace=wrap;html=1;" parent="1" vertex="1">
          <mxGeometry x="257.82" y="280" width="234.37" height="130" as="geometry" />
        </mxCell>
        <mxCell id="CXxHxpBOYkMWyndGR7CC-62" value="no" style="text;html=1;align=center;verticalAlign=middle;resizable=0;points=[];autosize=1;strokeColor=none;fillColor=none;" parent="1" vertex="1">
          <mxGeometry x="320" y="428" width="40" height="30" as="geometry" />
        </mxCell>
        <mxCell id="CXxHxpBOYkMWyndGR7CC-67" style="edgeStyle=orthogonalEdgeStyle;rounded=0;orthogonalLoop=1;jettySize=auto;html=1;exitX=1;exitY=0.5;exitDx=0;exitDy=0;" parent="1" source="CXxHxpBOYkMWyndGR7CC-64" target="CXxHxpBOYkMWyndGR7CC-66" edge="1">
          <mxGeometry relative="1" as="geometry">
            <Array as="points">
              <mxPoint x="710" y="293" />
            </Array>
          </mxGeometry>
        </mxCell>
        <mxCell id="CXxHxpBOYkMWyndGR7CC-64" value="&lt;font style=&quot;font-size: 18px;&quot;&gt;n_node-&amp;gt;next = prev&lt;/font&gt;" style="shape=parallelogram;perimeter=parallelogramPerimeter;whiteSpace=wrap;html=1;fixedSize=1;" parent="1" vertex="1">
          <mxGeometry x="590" y="260" width="210" height="65" as="geometry" />
        </mxCell>
        <mxCell id="JXXa7GjcEoNIcC7SGcLZ-3" style="edgeStyle=orthogonalEdgeStyle;rounded=0;orthogonalLoop=1;jettySize=auto;html=1;exitX=0.5;exitY=1;exitDx=0;exitDy=0;" parent="1" source="CXxHxpBOYkMWyndGR7CC-66" target="CXxHxpBOYkMWyndGR7CC-27" edge="1">
          <mxGeometry relative="1" as="geometry">
            <Array as="points">
              <mxPoint x="710" y="410" />
              <mxPoint x="830" y="410" />
              <mxPoint x="830" y="1440" />
            </Array>
          </mxGeometry>
        </mxCell>
        <mxCell id="CXxHxpBOYkMWyndGR7CC-66" value="&lt;font style=&quot;font-size: 18px;&quot;&gt;*head = n_node&lt;/font&gt;" style="shape=parallelogram;perimeter=parallelogramPerimeter;whiteSpace=wrap;html=1;fixedSize=1;" parent="1" vertex="1">
          <mxGeometry x="620" y="380" width="190" height="60" as="geometry" />
        </mxCell>
        <mxCell id="JXXa7GjcEoNIcC7SGcLZ-1" value="no" style="text;html=1;align=center;verticalAlign=middle;resizable=0;points=[];autosize=1;strokeColor=none;fillColor=none;" parent="1" vertex="1">
          <mxGeometry x="320" y="118" width="40" height="30" as="geometry" />
        </mxCell>
        <mxCell id="JXXa7GjcEoNIcC7SGcLZ-2" value="yes" style="text;html=1;align=center;verticalAlign=middle;resizable=0;points=[];autosize=1;strokeColor=none;fillColor=none;" parent="1" vertex="1">
          <mxGeometry x="500" y="310" width="40" height="30" as="geometry" />
        </mxCell>
        <mxCell id="JXXa7GjcEoNIcC7SGcLZ-4" value="&lt;font style=&quot;font-size: 25px;&quot;&gt;prev is the previous node &lt;br&gt;n_node is the new node to insert&lt;br&gt;head is the head of the linked list&lt;br&gt;number is the data inside each node&lt;br&gt;&lt;/font&gt;" style="text;html=1;align=center;verticalAlign=middle;resizable=0;points=[];autosize=1;strokeColor=none;fillColor=none;" parent="1" vertex="1">
          <mxGeometry x="-345" y="200" width="430" height="130" as="geometry" />
        </mxCell>
      </root>
    </mxGraphModel>
  </diagram>
</mxfile>
